<svg width="56" height="56" viewBox="0 0 56 56" fill="none" xmlns="http://www.w3.org/2000/svg">
<rect x="0.75" y="0.75" width="54.5" height="54.5" rx="27.25" stroke="#0D0E0F" stroke-width="1.5"/>
<path d="M38.2441 28.6195L30.3691 36.4946C30.2049 36.6587 29.9822 36.751 29.75 36.751C29.5178 36.751 29.2951 36.6587 29.1309 36.4946C28.9668 36.3304 28.8745 36.1077 28.8745 35.8755C28.8745 35.6433 28.9668 35.4206 29.1309 35.2564L35.513 28.8755H18.375C18.1429 28.8755 17.9204 28.7833 17.7563 28.6192C17.5922 28.4551 17.5 28.2326 17.5 28.0005C17.5 27.7684 17.5922 27.5459 17.7563 27.3818C17.9204 27.2177 18.1429 27.1255 18.375 27.1255H35.513L29.1309 20.7445C28.9668 20.5804 28.8745 20.3577 28.8745 20.1255C28.8745 19.8933 28.9668 19.6706 29.1309 19.5064C29.2951 19.3422 29.5178 19.25 29.75 19.25C29.9822 19.25 30.2049 19.3422 30.3691 19.5064L38.2441 27.3814C38.3254 27.4627 38.39 27.5592 38.434 27.6654C38.478 27.7716 38.5007 27.8855 38.5007 28.0005C38.5007 28.1155 38.478 28.2293 38.434 28.3356C38.39 28.4418 38.3254 28.5383 38.2441 28.6195Z" fill="#0E0F10"/>
</svg>
