<svg width="24" height="24" viewBox="0 0 24 24" fill="none" xmlns="http://www.w3.org/2000/svg">
<path fill-rule="evenodd" clip-rule="evenodd" d="M0 12C0 5.37272 5.37272 0 12 0C18.6273 0 24 5.37272 24 12C24 18.6273 18.6273 24 12 24C5.37272 24 0 18.6273 0 12ZM12.0065 3.77236C12.1065 3.77235 12.2046 3.79982 12.29 3.85177C12.3754 3.90371 12.4449 3.97814 12.4909 4.06691L14.6007 8.14145L19.1247 8.87999C19.2233 8.89626 19.3155 8.9393 19.3913 9.0044C19.4671 9.06951 19.5236 9.15418 19.5545 9.24919C19.5855 9.34419 19.5897 9.44587 19.5668 9.54313C19.544 9.64039 19.4948 9.72949 19.4247 9.80072L16.2043 13.0713L16.896 17.6029C16.9112 17.7018 16.8989 17.8029 16.8604 17.8953C16.822 17.9877 16.7589 18.0677 16.678 18.1266C16.5971 18.1855 16.5016 18.221 16.4019 18.2293C16.3022 18.2375 16.2022 18.2182 16.1127 18.1734L12.0065 16.1214L7.91236 18.1723C7.82295 18.2173 7.72288 18.2368 7.62313 18.2287C7.52337 18.2207 7.42776 18.1853 7.34676 18.1265C7.26577 18.0677 7.20252 17.9877 7.16393 17.8954C7.12535 17.803 7.11291 17.7018 7.12799 17.6029L7.81854 13.0713L4.58945 9.80181C4.51907 9.73062 4.46963 9.64143 4.44656 9.54402C4.42349 9.4466 4.42768 9.34471 4.45866 9.24952C4.48964 9.15432 4.54622 9.06949 4.62221 9.00431C4.69819 8.93913 4.79065 8.89612 4.88945 8.87999L9.42108 8.14145L11.5222 4.06691C11.5682 3.97814 11.6377 3.90371 11.7231 3.85177C11.8085 3.79982 11.9066 3.77235 12.0065 3.77236Z" fill="#0D0E0F"/>
</svg>
