<svg width="28" height="24" viewBox="0 0 28 24" fill="none" xmlns="http://www.w3.org/2000/svg">
<path d="M27.2372 6.89184L14.6855 0.172165C14.4745 0.059157 14.2385 0 13.9988 0C13.7591 0 13.5231 0.059157 13.3121 0.172165L0.760345 6.89184C0.530256 7.01533 0.338082 7.19843 0.204214 7.42174C0.0703462 7.64505 -0.000221034 7.90022 5.20092e-07 8.16018V15.8398C1.36221e-05 16.1 0.0709436 16.3554 0.20525 16.5787C0.339557 16.802 0.53222 16.985 0.762759 17.1082L13.3145 23.8278C13.5255 23.9408 13.7615 24 14.0012 24C14.2409 24 14.4769 23.9408 14.6879 23.8278L27.2397 17.1082C27.4697 16.9847 27.6619 16.8016 27.7958 16.5783C27.9297 16.355 28.0002 16.0998 28 15.8398V8.16018C28 7.89998 27.9291 7.64464 27.7947 7.42131C27.6604 7.19798 27.4678 7.01501 27.2372 6.89184ZM25.1034 13.4291L22.4338 12L25.1034 10.5709V13.4291ZM19.3791 10.3645L15.4483 8.25978V3.85119L23.4971 8.16018L19.3791 10.3645ZM14 13.2443L11.6755 12L14 10.7557L16.3245 12L14 13.2443ZM12.5517 3.85119V8.25978L8.62086 10.3645L4.50293 8.16018L12.5517 3.85119ZM2.89655 10.5709L5.56621 12L2.89655 13.4291V10.5709ZM8.62086 13.6355L12.5517 15.7402V20.1488L4.50293 15.8398L8.62086 13.6355ZM15.4483 20.1488V15.7402L19.3791 13.6355L23.4971 15.8398L15.4483 20.1488Z" fill="#0D0E0F"/>
</svg>
