<svg width="28" height="24" viewBox="0 0 28 24" fill="none" xmlns="http://www.w3.org/2000/svg">
<path d="M5.94291 1.64782C9.02865 4.03313 12.4572 8.80377 13.7144 11.3027C14.9716 8.80377 18.2859 4.03313 21.4859 1.64782C23.7716 -0.0559787 27.4288 -1.30543 27.4288 2.78368C27.4288 6.8728 26.9716 9.82605 26.6288 10.7347C25.6002 14.2559 22.0573 15.051 18.8573 14.5967C24.3431 15.5054 25.8288 18.6858 22.743 21.7526C16.9144 27.6591 14.4001 20.276 13.8287 18.345C13.8287 18.0043 13.7144 17.7771 13.7144 18.0043C13.7144 17.8907 13.7144 18.0043 13.6001 18.345C12.9144 20.276 10.4001 27.6591 4.68575 21.7526C1.60001 18.6858 3.08574 15.5054 8.5715 14.5967C5.37147 15.1646 1.82859 14.2559 0.800006 10.7347C0.571433 9.71246 0 3.57879 0 2.78368C0 -1.41902 3.65717 -0.0559787 5.94291 1.64782Z" fill="#0D0E0F"/>
</svg>
