<svg width="85" height="20" viewBox="0 0 85 20" fill="none" xmlns="http://www.w3.org/2000/svg">
<path d="M20.096 9.28V7.856L21.952 7.104L23.36 4.4H25.216V6.864H29.056V9.28H25.216V11.968C25.216 12.6293 25.3493 13.0933 25.616 13.36C25.8827 13.6267 26.368 13.76 27.072 13.76C27.52 13.76 27.9147 13.7227 28.256 13.648C28.608 13.5627 28.928 13.456 29.216 13.328V15.792C28.896 15.9093 28.4747 16.016 27.952 16.112C27.4293 16.208 26.8907 16.256 26.336 16.256C25.3227 16.256 24.4907 16.1013 23.84 15.792C23.2 15.4827 22.7253 15.04 22.416 14.464C22.1067 13.8773 21.952 13.1947 21.952 12.416V9.28H20.096ZM35.6954 16.256C34.522 16.256 33.498 16.0587 32.6234 15.664C31.7487 15.2587 31.066 14.6933 30.5754 13.968C30.0847 13.232 29.8394 12.3893 29.8394 11.44C29.8394 10.4693 30.0847 9.62133 30.5754 8.896C31.066 8.17067 31.7487 7.60533 32.6234 7.2C33.498 6.79467 34.522 6.592 35.6954 6.592C36.858 6.592 37.8767 6.79467 38.7514 7.2C39.6367 7.60533 40.3247 8.17067 40.8154 8.896C41.306 9.62133 41.5514 10.4693 41.5514 11.44C41.5514 12.3893 41.306 13.232 40.8154 13.968C40.3247 14.6933 39.6367 15.2587 38.7514 15.664C37.8767 16.0587 36.858 16.256 35.6954 16.256ZM35.6954 13.84C36.2287 13.84 36.682 13.744 37.0554 13.552C37.4394 13.36 37.7327 13.0827 37.9354 12.72C38.138 12.3573 38.2394 11.9307 38.2394 11.44C38.2394 10.928 38.138 10.496 37.9354 10.144C37.7327 9.78133 37.4394 9.504 37.0554 9.312C36.682 9.12 36.2287 9.024 35.6954 9.024C35.162 9.024 34.7034 9.12 34.3194 9.312C33.9354 9.504 33.642 9.78133 33.4394 10.144C33.2367 10.496 33.1354 10.9227 33.1354 11.424C33.1354 11.9253 33.2367 12.3573 33.4394 12.72C33.642 13.0827 33.9354 13.36 34.3194 13.552C34.7034 13.744 35.162 13.84 35.6954 13.84ZM42.9273 3.68H46.2073V16H42.9273V3.68ZM53.4454 16.256C52.272 16.256 51.248 16.0587 50.3734 15.664C49.4987 15.2587 48.816 14.6933 48.3254 13.968C47.8347 13.232 47.5894 12.3893 47.5894 11.44C47.5894 10.4693 47.8347 9.62133 48.3254 8.896C48.816 8.17067 49.4987 7.60533 50.3734 7.2C51.248 6.79467 52.272 6.592 53.4454 6.592C54.608 6.592 55.6267 6.79467 56.5014 7.2C57.3867 7.60533 58.0747 8.17067 58.5654 8.896C59.056 9.62133 59.3014 10.4693 59.3014 11.44C59.3014 12.3893 59.056 13.232 58.5654 13.968C58.0747 14.6933 57.3867 15.2587 56.5014 15.664C55.6267 16.0587 54.608 16.256 53.4454 16.256ZM53.4454 13.84C53.9787 13.84 54.432 13.744 54.8054 13.552C55.1894 13.36 55.4827 13.0827 55.6854 12.72C55.888 12.3573 55.9894 11.9307 55.9894 11.44C55.9894 10.928 55.888 10.496 55.6854 10.144C55.4827 9.78133 55.1894 9.504 54.8054 9.312C54.432 9.12 53.9787 9.024 53.4454 9.024C52.912 9.024 52.4534 9.12 52.0694 9.312C51.6854 9.504 51.392 9.78133 51.1894 10.144C50.9867 10.496 50.8854 10.9227 50.8854 11.424C50.8854 11.9253 50.9867 12.3573 51.1894 12.72C51.392 13.0827 51.6854 13.36 52.0694 13.552C52.4534 13.744 52.912 13.84 53.4454 13.84ZM63.9573 13.392L63.0613 13.088L68.1173 6.864H71.5573L63.6053 16H60.6773V3.68H63.9573V13.392ZM65.5093 11.536L67.9733 9.808L71.7973 16H68.1173L65.5093 11.536ZM80.3395 16L79.9235 12.704L80.3555 11.44L79.9235 10.176L80.3395 6.864H83.7315L83.1555 11.424L83.7315 16H80.3395ZM81.1075 11.44C80.9582 12.4 80.6595 13.2427 80.2115 13.968C79.7742 14.6933 79.2142 15.2587 78.5315 15.664C77.8595 16.0587 77.0915 16.256 76.2275 16.256C75.3315 16.256 74.5422 16.0587 73.8595 15.664C73.1875 15.2587 72.6595 14.6933 72.2755 13.968C71.8915 13.232 71.6995 12.3893 71.6995 11.44C71.6995 10.4693 71.8915 9.62133 72.2755 8.896C72.6595 8.17067 73.1875 7.60533 73.8595 7.2C74.5422 6.79467 75.3315 6.592 76.2275 6.592C77.0915 6.592 77.8595 6.79467 78.5315 7.2C79.2142 7.59467 79.7795 8.15467 80.2275 8.88C80.6755 9.59467 80.9688 10.448 81.1075 11.44ZM75.0115 11.44C75.0115 11.888 75.1022 12.288 75.2835 12.64C75.4755 12.992 75.7368 13.2693 76.0675 13.472C76.3982 13.664 76.7768 13.76 77.2035 13.76C77.6515 13.76 78.0728 13.664 78.4675 13.472C78.8622 13.2693 79.2088 12.992 79.5075 12.64C79.8062 12.288 80.0302 11.888 80.1795 11.44C80.0302 10.9813 79.8062 10.576 79.5075 10.224C79.2088 9.872 78.8622 9.59467 78.4675 9.392C78.0728 9.18933 77.6515 9.088 77.2035 9.088C76.7768 9.088 76.3982 9.18933 76.0675 9.392C75.7368 9.59467 75.4755 9.872 75.2835 10.224C75.1022 10.576 75.0115 10.9813 75.0115 11.44Z" fill="#0D0E0F"/>
</svg>
