<svg width="72" height="48" viewBox="0 0 72 48" fill="none" xmlns="http://www.w3.org/2000/svg">
<rect x="0.75" y="0.75" width="70.5" height="46.5" rx="23.25" fill="white"/>
<rect x="0.75" y="0.75" width="70.5" height="46.5" rx="23.25" stroke="black" stroke-width="1.5"/>
<path d="M43.5 15H41.25V14.25C41.25 14.0511 41.171 13.8603 41.0303 13.7197C40.8897 13.579 40.6989 13.5 40.5 13.5C40.3011 13.5 40.1103 13.579 39.9697 13.7197C39.829 13.8603 39.75 14.0511 39.75 14.25V15H32.25V14.25C32.25 14.0511 32.171 13.8603 32.0303 13.7197C31.8897 13.579 31.6989 13.5 31.5 13.5C31.3011 13.5 31.1103 13.579 30.9697 13.7197C30.829 13.8603 30.75 14.0511 30.75 14.25V15H28.5C28.1022 15 27.7206 15.158 27.4393 15.4393C27.158 15.7206 27 16.1022 27 16.5V31.5C27 31.8978 27.158 32.2794 27.4393 32.5607C27.7206 32.842 28.1022 33 28.5 33H43.5C43.8978 33 44.2794 32.842 44.5607 32.5607C44.842 32.2794 45 31.8978 45 31.5V16.5C45 16.1022 44.842 15.7206 44.5607 15.4393C44.2794 15.158 43.8978 15 43.5 15ZM30.75 16.5V17.25C30.75 17.4489 30.829 17.6397 30.9697 17.7803C31.1103 17.921 31.3011 18 31.5 18C31.6989 18 31.8897 17.921 32.0303 17.7803C32.171 17.6397 32.25 17.4489 32.25 17.25V16.5H39.75V17.25C39.75 17.4489 39.829 17.6397 39.9697 17.7803C40.1103 17.921 40.3011 18 40.5 18C40.6989 18 40.8897 17.921 41.0303 17.7803C41.171 17.6397 41.25 17.4489 41.25 17.25V16.5H43.5V19.5H28.5V16.5H30.75ZM43.5 31.5H28.5V21H43.5V31.5Z" fill="#0E0F10"/>
</svg>
