<svg width="72" height="48" viewBox="0 0 72 48" fill="none" xmlns="http://www.w3.org/2000/svg">
<rect x="0.75" y="0.75" width="70.5" height="46.5" rx="23.25" fill="white"/>
<rect x="0.75" y="0.75" width="70.5" height="46.5" rx="23.25" stroke="black" stroke-width="1.5"/>
<path d="M45.6187 16.6435C45.5033 16.3768 45.312 16.1499 45.0686 15.991C44.8253 15.8322 44.5406 15.7484 44.25 15.75H27.75C27.4597 15.7506 27.1758 15.8354 26.9327 15.9942C26.6896 16.1529 26.4978 16.3788 26.3806 16.6444C26.2634 16.91 26.2258 17.2039 26.2723 17.4905C26.3189 17.777 26.4476 18.0439 26.6428 18.2588L26.6503 18.2672L33 25.0472V32.25C32.9999 32.5215 33.0735 32.7879 33.213 33.0208C33.3524 33.2538 33.5525 33.4445 33.7918 33.5727C34.0311 33.7008 34.3007 33.7617 34.5719 33.7486C34.843 33.7356 35.1056 33.6493 35.3315 33.4988L38.3315 31.4981C38.5372 31.3612 38.7058 31.1755 38.8224 30.9576C38.939 30.7398 39 30.4965 39 30.2494V25.0472L45.3506 18.2672L45.3581 18.2588C45.5554 18.0449 45.6853 17.7776 45.7317 17.4904C45.778 17.2031 45.7387 16.9085 45.6187 16.6435ZM37.7043 24.2419C37.5746 24.3795 37.5016 24.5609 37.5 24.75V30.2494L34.5 32.25V24.75C34.5 24.5596 34.4276 24.3762 34.2975 24.2372L27.75 17.25H44.25L37.7043 24.2419Z" fill="#0E0F10"/>
</svg>
