<svg width="24" height="24" viewBox="0 0 24 24" fill="none" xmlns="http://www.w3.org/2000/svg">
<path d="M20.0306 12.2198C20.1003 12.2894 20.1557 12.3722 20.1934 12.4632C20.2312 12.5543 20.2506 12.6519 20.2506 12.7504C20.2506 12.849 20.2312 12.9466 20.1934 13.0376C20.1557 13.1287 20.1003 13.2114 20.0306 13.281L12.5306 20.781C12.461 20.8508 12.3782 20.9061 12.2872 20.9438C12.1961 20.9816 12.0986 21.001 12 21.001C11.9014 21.001 11.8038 20.9816 11.7128 20.9438C11.6217 20.9061 11.539 20.8508 11.4694 20.781L3.96936 13.281C3.82863 13.1403 3.74957 12.9494 3.74957 12.7504C3.74957 12.5514 3.82863 12.3605 3.96936 12.2198C4.1101 12.0791 4.30097 12 4.49999 12C4.69901 12 4.88988 12.0791 5.03061 12.2198L12 19.1901L18.9694 12.2198C19.039 12.1501 19.1217 12.0947 19.2128 12.057C19.3038 12.0193 19.4014 11.9998 19.5 11.9998C19.5986 11.9998 19.6961 12.0193 19.7872 12.057C19.8782 12.0947 19.961 12.1501 20.0306 12.2198ZM11.4694 13.281C11.539 13.3508 11.6217 13.4061 11.7128 13.4438C11.8038 13.4816 11.9014 13.501 12 13.501C12.0986 13.501 12.1961 13.4816 12.2872 13.4438C12.3782 13.4061 12.461 13.3508 12.5306 13.281L20.0306 5.78104C20.1713 5.64031 20.2504 5.44944 20.2504 5.25042C20.2504 5.05139 20.1713 4.86052 20.0306 4.71979C19.8899 4.57906 19.699 4.5 19.5 4.5C19.301 4.5 19.1101 4.57906 18.9694 4.71979L12 11.6901L5.03061 4.71979C4.88988 4.57906 4.69901 4.5 4.49999 4.5C4.30097 4.5 4.1101 4.57906 3.96936 4.71979C3.82863 4.86052 3.74957 5.05139 3.74957 5.25042C3.74957 5.44944 3.82863 5.64031 3.96936 5.78104L11.4694 13.281Z" fill="#0E0F10"/>
</svg>
