<svg width="32" height="32" viewBox="0 0 32 32" fill="none" xmlns="http://www.w3.org/2000/svg">
<path d="M26.7071 16.2921C26.8001 16.385 26.8738 16.4952 26.9241 16.6166C26.9745 16.738 27.0004 16.8682 27.0004 16.9996C27.0004 17.131 26.9745 17.2611 26.9241 17.3825C26.8738 17.5039 26.8001 17.6142 26.7071 17.7071L16.7071 27.7071C16.6142 27.8001 16.5039 27.8738 16.3825 27.9241C16.2611 27.9745 16.131 28.0004 15.9996 28.0004C15.8682 28.0004 15.738 27.9745 15.6166 27.9241C15.4952 27.8738 15.385 27.8001 15.2921 27.7071L5.29208 17.7071C5.10444 17.5194 4.99902 17.2649 4.99902 16.9996C4.99902 16.7342 5.10444 16.4797 5.29208 16.2921C5.47972 16.1044 5.73422 15.999 5.99958 15.999C6.26494 15.999 6.51944 16.1044 6.70708 16.2921L15.9996 25.5858L25.2921 16.2921C25.385 16.1991 25.4952 16.1253 25.6166 16.075C25.738 16.0247 25.8682 15.9988 25.9996 15.9988C26.131 15.9988 26.2611 16.0247 26.3825 16.075C26.5039 16.1253 26.6142 16.1991 26.7071 16.2921ZM15.2921 17.7071C15.385 17.8001 15.4952 17.8738 15.6166 17.9241C15.738 17.9745 15.8682 18.0004 15.9996 18.0004C16.131 18.0004 16.2611 17.9745 16.3825 17.9241C16.5039 17.8738 16.6142 17.8001 16.7071 17.7071L26.7071 7.70708C26.8947 7.51944 27.0001 7.26494 27.0001 6.99958C27.0001 6.73422 26.8947 6.47972 26.7071 6.29208C26.5194 6.10444 26.2649 5.99902 25.9996 5.99902C25.7342 5.99902 25.4797 6.10444 25.2921 6.29208L15.9996 15.5858L6.70708 6.29208C6.51944 6.10444 6.26494 5.99902 5.99958 5.99902C5.73422 5.99902 5.47972 6.10444 5.29208 6.29208C5.10444 6.47972 4.99902 6.73422 4.99902 6.99958C4.99902 7.26494 5.10444 7.51944 5.29208 7.70708L15.2921 17.7071Z" fill="#0E0F10"/>
</svg>
