<svg width="32" height="32" viewBox="0 0 32 32" fill="none" xmlns="http://www.w3.org/2000/svg">
<path d="M20.0272 3V1C20.0272 0.734784 20.1325 0.48043 20.3201 0.292893C20.5076 0.105357 20.762 0 21.0272 0C21.2924 0 21.5468 0.105357 21.7343 0.292893C21.9218 0.48043 22.0272 0.734784 22.0272 1V3C22.0272 3.26522 21.9218 3.51957 21.7343 3.70711C21.5468 3.89464 21.2924 4 21.0272 4C20.762 4 20.5076 3.89464 20.3201 3.70711C20.1325 3.51957 20.0272 3.26522 20.0272 3ZM24.5122 5.125C24.669 5.22129 24.8495 5.27194 25.0334 5.27125C25.2051 5.27152 25.3739 5.22763 25.5236 5.14378C25.6733 5.05993 25.799 4.93896 25.8884 4.7925L26.8884 3.15375C26.9568 3.04147 27.0024 2.91682 27.0226 2.78693C27.0428 2.65703 27.0372 2.52442 27.0062 2.39669C26.9751 2.26895 26.9192 2.14858 26.8416 2.04244C26.7641 1.93631 26.6663 1.84649 26.5541 1.77813C26.4418 1.70976 26.3171 1.66417 26.1872 1.64397C26.0573 1.62378 25.9247 1.62936 25.797 1.66041C25.6693 1.69146 25.5489 1.74737 25.4428 1.82494C25.3366 1.90251 25.2468 2.00022 25.1784 2.1125L24.1784 3.75C24.11 3.86218 24.0643 3.98675 24.0441 4.11658C24.0238 4.24642 24.0293 4.37897 24.0603 4.50667C24.0913 4.63437 24.1472 4.75471 24.2247 4.8608C24.3023 4.9669 24.3999 5.05668 24.5122 5.125ZM30.4509 6.69875C30.4107 6.5736 30.3461 6.45762 30.2609 6.35744C30.1758 6.25727 30.0717 6.17487 29.9547 6.11496C29.8377 6.05505 29.71 6.01881 29.5789 6.00831C29.4479 5.9978 29.316 6.01324 29.1909 6.05375L27.3084 6.66C27.081 6.73271 26.8871 6.88439 26.7618 7.08762C26.6365 7.29085 26.588 7.53222 26.6251 7.76808C26.6623 8.00394 26.7826 8.21872 26.9643 8.37359C27.146 8.52847 27.3772 8.61321 27.6159 8.6125C27.7203 8.6121 27.824 8.59566 27.9234 8.56375L29.8047 7.9575C29.9304 7.91737 30.0469 7.85277 30.1475 7.76742C30.2481 7.68206 30.3308 7.57764 30.3909 7.46016C30.451 7.34269 30.4872 7.21449 30.4975 7.08296C30.5078 6.95142 30.492 6.81914 30.4509 6.69375V6.69875ZM27.1247 12.1975C28.1837 14.0389 28.6307 16.169 28.4011 18.2807C28.1715 20.3925 27.2772 22.3768 25.8472 23.9475C25.8047 24.1638 25.7572 24.38 25.6984 24.595C25.1829 26.5071 24.1124 28.2235 22.622 29.5277C21.1317 30.8318 19.2884 31.6651 17.3248 31.9224C15.3613 32.1798 13.3655 31.8495 11.5894 30.9734C9.8134 30.0973 8.33676 28.7147 7.34594 27L2.93719 19.375C2.66941 18.9111 2.52045 18.3881 2.50357 17.8527C2.48669 17.3173 2.6024 16.7861 2.84043 16.3062C3.07845 15.8263 3.4314 15.4127 3.86787 15.1022C4.30434 14.7916 4.8108 14.5938 5.34219 14.5262L4.96719 13.8763C4.69976 13.4127 4.55093 12.8903 4.53392 12.3554C4.51692 11.8205 4.63226 11.2897 4.86971 10.8101C5.10716 10.3305 5.45936 9.91698 5.89505 9.60622C6.33073 9.29546 6.83641 9.0971 7.36719 9.02875L7.27969 8.875C6.90898 8.23658 6.76667 7.49097 6.87619 6.76089C6.9857 6.03081 7.34052 5.35977 7.88223 4.85822C8.42394 4.35667 9.12027 4.05449 9.8566 4.00142C10.5929 3.94835 11.3254 4.14756 11.9334 4.56625C12.2269 4.08294 12.6411 3.68433 13.1353 3.40963C13.6295 3.13493 14.1867 2.99359 14.752 2.99952C15.3174 3.00545 15.8715 3.15844 16.3599 3.44344C16.8482 3.72844 17.2539 4.13565 17.5372 4.625L19.0697 7.275C19.3956 6.8499 19.8213 6.5117 20.3091 6.29034C20.7969 6.06898 21.3318 5.97128 21.8663 6.00589C22.4009 6.04049 22.9186 6.20634 23.3738 6.48875C23.829 6.77116 24.2075 7.16142 24.4759 7.625L27.1247 12.1975ZM13.6334 6.875L16.7584 12.2712C17.0191 11.9302 17.3447 11.6441 17.7165 11.4295C18.0883 11.215 18.499 11.0762 18.9247 11.0212L15.8022 5.625C15.6364 5.33741 15.3632 5.12744 15.0426 5.04129C14.7221 4.95514 14.3804 4.99986 14.0928 5.16563C13.8052 5.33139 13.5953 5.6046 13.5091 5.92517C13.423 6.24574 13.4677 6.58741 13.6334 6.875ZM9.01469 7.875L9.82219 9.27125C10.0829 8.93054 10.4084 8.64472 10.78 8.43021C11.1515 8.21569 11.5618 8.07671 11.9872 8.02125L11.1809 6.625C11.0989 6.48276 10.9896 6.35808 10.8593 6.25808C10.7291 6.15808 10.5804 6.08471 10.4218 6.04217C10.2631 5.99963 10.0977 5.98875 9.93488 6.01015C9.77206 6.03154 9.61505 6.0848 9.47281 6.16687C9.33058 6.24895 9.2059 6.35824 9.1059 6.4885C9.00589 6.61876 8.93253 6.76744 8.88999 6.92606C8.84745 7.08467 8.83656 7.25011 8.85796 7.41293C8.87936 7.57575 8.93261 7.73276 9.01469 7.875ZM22.9572 18L20.4297 13.625C20.2764 13.3309 20.0125 13.1098 19.6961 13.0103C19.3798 12.9108 19.0369 12.941 18.7428 13.0944C18.4488 13.2477 18.2276 13.5116 18.1281 13.8279C18.0286 14.1443 18.0589 14.4872 18.2122 14.7812L19.7872 17.5C19.9198 17.7299 19.9556 18.0031 19.8868 18.2594C19.818 18.5158 19.6502 18.7343 19.4203 18.8669C19.1904 18.9995 18.9172 19.0353 18.6609 18.9665C18.4046 18.8977 18.186 18.7299 18.0534 18.5L13.4909 10.625C13.3252 10.3374 13.052 10.1274 12.7314 10.0413C12.4108 9.95514 12.0692 9.99986 11.7816 10.1656C11.494 10.3314 11.284 10.6046 11.1979 10.9252C11.1117 11.2457 11.1564 11.5874 11.3222 11.875L14.5784 17.5C14.711 17.7299 14.7469 18.0031 14.6781 18.2594C14.6093 18.5158 14.4415 18.7343 14.2116 18.8669C13.9817 18.9995 13.7085 19.0353 13.4521 18.9665C13.1958 18.8977 12.9773 18.7299 12.8447 18.5L8.87469 11.625C8.70893 11.3377 8.43584 11.1281 8.11551 11.0422C7.79517 10.9563 7.45383 11.0011 7.16656 11.1669C6.8793 11.3326 6.66965 11.6057 6.58374 11.9261C6.49782 12.2464 6.54268 12.5877 6.70844 12.875L11.1109 20.5C11.2435 20.7302 11.2793 21.0037 11.2102 21.2603C11.1412 21.5169 10.9731 21.7355 10.7428 21.8681C10.5126 22.0007 10.2391 22.0364 9.98251 21.9674C9.72594 21.8984 9.5073 21.7302 9.37469 21.5L6.83969 17.125C6.67393 16.8376 6.40078 16.6278 6.08032 16.5417C5.75987 16.4557 5.41837 16.5005 5.13094 16.6663C4.84351 16.832 4.6337 17.1052 4.54767 17.4256C4.46164 17.7461 4.50643 18.0876 4.67219 18.375L9.08094 26C9.874 27.3711 11.0555 28.4764 12.4763 29.1765C13.8971 29.8765 15.4934 30.14 17.0638 29.9335C18.6342 29.727 20.1082 29.0598 21.2997 28.0162C22.4912 26.9727 23.3468 25.5995 23.7584 24.07C24.0333 23.0556 24.104 21.9966 23.9664 20.9547C23.8289 19.9127 23.4858 18.9084 22.9572 18ZM25.3834 13.1975L22.7409 8.625C22.6589 8.48235 22.5495 8.35727 22.4191 8.25689C22.2887 8.1565 22.1397 8.08279 21.9808 8.03996C21.6599 7.95346 21.3178 7.99799 21.0297 8.16375C20.887 8.24583 20.762 8.3552 20.6616 8.48561C20.5612 8.61603 20.4875 8.76494 20.4447 8.92385C20.3582 9.24477 20.4027 9.58691 20.5684 9.875L24.6934 17.0063C25.2652 17.9922 25.6647 19.0685 25.8747 20.1887C26.3267 19.0621 26.5173 17.8476 26.4322 16.6367C26.3471 15.4258 25.9885 14.2499 25.3834 13.1975Z" fill="#0E0F10"/>
</svg>
