<svg width="16" height="16" viewBox="0 0 16 16" fill="none" xmlns="http://www.w3.org/2000/svg">
<path d="M10 2.5C10 2.10444 9.88274 1.71776 9.66298 1.38886C9.44322 1.05996 9.13086 0.803617 8.76541 0.652242C8.39995 0.500867 7.99782 0.46126 7.60986 0.53843C7.2219 0.615601 6.86553 0.806082 6.58582 1.08579C6.30612 1.36549 6.11564 1.72186 6.03847 2.10982C5.9613 2.49778 6.0009 2.89992 6.15228 3.26537C6.30365 3.63082 6.56 3.94318 6.8889 4.16294C7.2178 4.3827 7.60448 4.5 8.00004 4.5C8.53047 4.5 9.03918 4.28929 9.41425 3.91421C9.78932 3.53914 10 3.03043 10 2.5ZM8.00004 3.5C7.80226 3.5 7.60892 3.44135 7.44447 3.33147C7.28002 3.22159 7.15185 3.06541 7.07616 2.88268C7.00047 2.69996 6.98067 2.49889 7.01925 2.30491C7.05784 2.11093 7.15308 1.93275 7.29293 1.79289C7.43278 1.65304 7.61097 1.5578 7.80495 1.51922C7.99893 1.48063 8.2 1.50043 8.38272 1.57612C8.56545 1.65181 8.72163 1.77998 8.83151 1.94443C8.94139 2.10888 9.00004 2.30222 9.00004 2.5C9.00004 2.76522 8.89468 3.01957 8.70715 3.20711C8.51961 3.39464 8.26525 3.5 8.00004 3.5ZM14.4688 5.48188C14.4119 5.20185 14.2589 4.9505 14.0364 4.77122C13.8139 4.59195 13.5358 4.49602 13.25 4.5H2.75004C2.46509 4.49999 2.18869 4.59734 1.96664 4.77592C1.74459 4.95449 1.59021 5.20357 1.52909 5.48189C1.46798 5.7602 1.50378 6.05105 1.63058 6.30623C1.75738 6.56141 1.96756 6.76562 2.22629 6.885H2.23441L5.40629 8.28188L4.09379 13.2644C3.95646 13.5669 3.94492 13.9116 4.06172 14.2226C4.17852 14.5336 4.41409 14.7855 4.7166 14.9228C5.01911 15.0601 5.36379 15.0717 5.67481 14.9549C5.98583 14.8381 6.23771 14.6025 6.37504 14.3L8.00004 11.4956L9.62504 14.3C9.76945 14.5896 10.0206 14.8119 10.3255 14.9202C10.6305 15.0285 10.9656 15.0142 11.2603 14.8805C11.555 14.7467 11.7863 14.5039 11.9056 14.2031C12.025 13.9023 12.0229 13.5669 11.9 13.2675L10.5875 8.285L13.7594 6.88813H13.7675C14.0304 6.77273 14.2446 6.56884 14.3727 6.31192C14.5008 6.05499 14.5348 5.76128 14.4688 5.48188ZM13.3563 5.97563L9.79816 7.54188C9.68924 7.58987 9.601 7.67516 9.54934 7.78239C9.49767 7.88962 9.48595 8.01177 9.51629 8.12688L10.9457 13.5625C10.953 13.5916 10.9632 13.6199 10.9763 13.6469C10.9973 13.6917 11.0044 13.7418 10.9969 13.7907C10.9894 13.8397 10.9675 13.8853 10.934 13.9218C10.9006 13.9583 10.857 13.984 10.8089 13.9957C10.7608 14.0074 10.7103 14.0045 10.6638 13.9875C10.6016 13.9647 10.5511 13.9182 10.5232 13.8581C10.5168 13.8446 10.5097 13.8315 10.5019 13.8188L8.43254 10.25C8.38859 10.1742 8.3255 10.1113 8.2496 10.0676C8.17369 10.0239 8.08763 10.0009 8.00004 10.0009C7.91244 10.0009 7.82639 10.0239 7.75048 10.0676C7.67458 10.1113 7.61149 10.1742 7.56754 10.25L5.50004 13.8156C5.49222 13.8283 5.48512 13.8415 5.47879 13.855C5.45089 13.915 5.40032 13.9616 5.33816 13.9844C5.29167 14.0014 5.24117 14.0043 5.19305 13.9926C5.14494 13.9809 5.10138 13.9551 5.06791 13.9187C5.03444 13.8822 5.01255 13.8366 5.00503 13.7876C4.99751 13.7387 5.00469 13.6886 5.02566 13.6438C5.03874 13.6168 5.049 13.5885 5.05629 13.5594L6.48379 8.125C6.51413 8.0099 6.50241 7.88775 6.45074 7.78051C6.39907 7.67328 6.31084 7.588 6.20191 7.54L2.64379 5.97563C2.59271 5.95125 2.55142 5.91028 2.52666 5.85939C2.50189 5.8085 2.49513 5.75072 2.50747 5.69549C2.5198 5.64026 2.55052 5.59085 2.59458 5.55534C2.63864 5.51983 2.69345 5.50032 2.75004 5.5H13.25C13.3068 5.4999 13.3619 5.51911 13.4063 5.55447C13.4507 5.58983 13.4817 5.63924 13.4943 5.69458C13.5069 5.74992 13.5002 5.80789 13.4755 5.85897C13.4508 5.91004 13.4094 5.95118 13.3582 5.97563H13.3563Z" fill="#9251FB"/>
</svg>
