<svg width="52" height="48" viewBox="0 0 52 48" fill="none" xmlns="http://www.w3.org/2000/svg">
<g clip-path="url(#clip0_1261_4764)">
<path d="M34.3039 17.743C34.1814 17.4661 33.9812 17.2308 33.7275 17.0656C33.4739 16.9005 33.1777 16.8125 32.875 16.8125H19.125C18.8223 16.8125 18.5262 16.9005 18.2725 17.0656C18.0189 17.2308 17.8187 17.466 17.6962 17.7428C17.5738 18.0196 17.5343 18.326 17.5827 18.6247C17.6311 18.9235 17.7652 19.2018 17.9687 19.4258L17.9781 19.4367L23.1875 24.9961V30.875C23.1874 31.1579 23.2642 31.4355 23.4095 31.6781C23.5549 31.9208 23.7634 32.1195 24.0128 32.2529C24.2623 32.3864 24.5432 32.4496 24.8258 32.4359C25.1083 32.4222 25.3818 32.332 25.6172 32.175L28.1172 30.5086C28.3312 30.3658 28.5067 30.1723 28.628 29.9454C28.7493 29.7185 28.8126 29.4651 28.8125 29.2078V24.9961L34.0211 19.4367L34.0304 19.4258C34.2341 19.2019 34.3684 18.9237 34.4169 18.625C34.4654 18.3262 34.4262 18.0198 34.3039 17.743ZM27.1945 23.9844C27.0305 24.1575 26.9386 24.3865 26.9375 24.625V29.0406L25.0625 30.2906V24.625C25.0622 24.387 24.9715 24.1579 24.8086 23.9844L19.8461 18.6875H32.1539L27.1945 23.9844Z" fill="#0D0E0F"/>
</g>
<rect x="0.75" y="6.75" width="50.5" height="34.5" rx="17.25" stroke="#0D0E0F" stroke-width="1.5"/>
<defs>
<clipPath id="clip0_1261_4764">
<rect y="6" width="52" height="36" rx="18" fill="white"/>
</clipPath>
</defs>
</svg>
