<svg width="20" height="24" viewBox="0 0 20 24" fill="none" xmlns="http://www.w3.org/2000/svg">
<path d="M10 0C12.6522 0 15.1957 1.08367 17.0711 3.01262C18.9464 4.94156 20 7.55777 20 10.2857C20 14.544 16.8444 19.0057 10.6667 23.7714C10.4743 23.9198 10.2404 24 10 24C9.75959 24 9.52566 23.9198 9.33333 23.7714C3.15556 19.0057 0 14.544 0 10.2857C0 7.55777 1.05357 4.94156 2.92893 3.01262C4.8043 1.08367 7.34784 0 10 0ZM10 2.28571C7.9372 2.28571 5.9589 3.12857 4.50028 4.62886C3.04166 6.12915 2.22222 8.16398 2.22222 10.2857C2.22222 13.3829 4.57556 16.9554 9.38667 20.9211L10 21.4194L10.6133 20.9211C15.4244 16.9554 17.7778 13.3829 17.7778 10.2857C17.7778 8.16398 16.9583 6.12915 15.4997 4.62886C14.0411 3.12857 12.0628 2.28571 10 2.28571ZM10 8C10.5894 8 11.1546 8.24082 11.5713 8.66947C11.9881 9.09813 12.2222 9.67951 12.2222 10.2857C12.2222 10.8919 11.9881 11.4733 11.5713 11.902C11.1546 12.3306 10.5894 12.5714 10 12.5714C9.41063 12.5714 8.8454 12.3306 8.42865 11.902C8.0119 11.4733 7.77778 10.8919 7.77778 10.2857C7.77778 9.67951 8.0119 9.09813 8.42865 8.66947C8.8454 8.24082 9.41063 8 10 8Z" fill="#9251FB"/>
</svg>
