<svg width="16" height="15" viewBox="0 0 16 15" fill="none" xmlns="http://www.w3.org/2000/svg">
<path d="M7.87531 1.12531C6.54029 1.12531 5.23525 1.52119 4.12521 2.26289C3.01518 3.00459 2.15002 4.0588 1.63913 5.2922C1.12823 6.5256 0.994562 7.8828 1.25501 9.19217C1.51546 10.5015 2.15834 11.7043 3.10234 12.6483C4.04635 13.5923 5.24908 14.2352 6.55845 14.4956C7.86783 14.7561 9.22503 14.6224 10.4584 14.1115C11.6918 13.6006 12.746 12.7354 13.4877 11.6254C14.2294 10.5154 14.6253 9.21034 14.6253 7.87531C14.6233 6.08573 13.9115 4.37003 12.646 3.1046C11.3806 1.83918 9.6649 1.12736 7.87531 1.12531ZM7.87531 13.5003C6.76279 13.5003 5.67526 13.1704 4.75023 12.5523C3.8252 11.9342 3.10423 11.0557 2.67849 10.0279C2.25275 9.00007 2.14135 7.86907 2.3584 6.77793C2.57544 5.68679 3.11117 4.68451 3.89784 3.89784C4.68451 3.11117 5.68679 2.57544 6.77793 2.3584C7.86907 2.14135 9.00007 2.25275 10.0279 2.67849C11.0557 3.10423 11.9342 3.8252 12.5523 4.75023C13.1704 5.67526 13.5003 6.76279 13.5003 7.87531C13.4986 9.36664 12.9055 10.7964 11.8509 11.8509C10.7964 12.9055 9.36664 13.4986 7.87531 13.5003ZM3.21078 0.960781L0.960782 3.21078C0.855234 3.31633 0.71208 3.37563 0.562813 3.37563C0.413546 3.37563 0.270392 3.31633 0.164844 3.21078C0.0592962 3.10523 1.57279e-09 2.96208 0 2.81281C-1.57279e-09 2.66355 0.0592962 2.52039 0.164844 2.41484L2.41484 0.164844C2.52039 0.0592961 2.66355 0 2.81281 0C2.96208 0 3.10523 0.0592961 3.21078 0.164844C3.31633 0.270392 3.37563 0.413546 3.37563 0.562813C3.37563 0.71208 3.31633 0.855234 3.21078 0.960781ZM15.5858 3.21078C15.5335 3.26308 15.4715 3.30457 15.4032 3.33288C15.3349 3.36118 15.2617 3.37576 15.1878 3.37576C15.1139 3.37576 15.0407 3.36118 14.9724 3.33288C14.9041 3.30457 14.8421 3.26308 14.7898 3.21078L12.5398 0.960781C12.4343 0.855234 12.375 0.71208 12.375 0.562813C12.375 0.413546 12.4343 0.270392 12.5398 0.164844C12.6454 0.0592961 12.7885 2.94241e-09 12.9378 0C13.0871 -2.94241e-09 13.2302 0.0592961 13.3358 0.164844L15.5858 2.41484C15.6381 2.46709 15.6796 2.52912 15.7079 2.59741C15.7362 2.6657 15.7508 2.73889 15.7508 2.81281C15.7508 2.88673 15.7362 2.95993 15.7079 3.02822C15.6796 3.0965 15.6381 3.15854 15.5858 3.21078ZM11.8128 7.31281C11.962 7.31281 12.1051 7.37208 12.2106 7.47756C12.3161 7.58305 12.3753 7.72613 12.3753 7.87531C12.3753 8.0245 12.3161 8.16757 12.2106 8.27306C12.1051 8.37855 11.962 8.43781 11.8128 8.43781H7.87531C7.72613 8.43781 7.58305 8.37855 7.47757 8.27306C7.37208 8.16757 7.31281 8.0245 7.31281 7.87531V3.93781C7.31281 3.78863 7.37208 3.64555 7.47757 3.54007C7.58305 3.43458 7.72613 3.37531 7.87531 3.37531C8.0245 3.37531 8.16757 3.43458 8.27306 3.54007C8.37855 3.64555 8.43781 3.78863 8.43781 3.93781V7.31281H11.8128Z" fill="#9251FB"/>
</svg>
