<svg width="59" height="59" viewBox="0 0 59 59" fill="none" xmlns="http://www.w3.org/2000/svg">
<path d="M0 58.9997L4.14719 43.8491C1.58807 39.4142 0.243374 34.387 0.245832 29.2319C0.253207 13.1151 13.3683 0 29.4826 0C37.3025 0.00245832 44.6431 3.04832 50.1645 8.57462C55.6834 14.1009 58.7219 21.4464 58.7194 29.2589C58.7121 45.3781 45.5969 58.4933 29.4826 58.4933C24.5906 58.4908 19.7698 57.2641 15.4997 54.9336L0 58.9997ZM16.2175 49.6409C20.3377 52.0869 24.271 53.552 29.4728 53.5545C42.8657 53.5545 53.7758 42.6543 53.7831 29.254C53.788 15.8267 42.9296 4.94122 29.4925 4.93631C16.0897 4.93631 5.18706 15.8365 5.18214 29.2343C5.17968 34.7041 6.7825 38.7997 9.47437 43.0845L7.0185 52.0525L16.2175 49.6409ZM44.2104 36.2086C44.0285 35.9038 43.5418 35.7218 42.8092 35.3556C42.0791 34.9893 38.4875 33.2217 37.8163 32.9784C37.1477 32.735 36.6609 32.6121 36.1717 33.3447C35.685 34.0748 34.2837 35.7218 33.8584 36.2086C33.4332 36.6953 33.0054 36.7568 32.2753 36.3905C31.5452 36.0242 29.1901 35.2548 26.3999 32.7645C24.2292 30.8273 22.7616 28.4354 22.3363 27.7028C21.911 26.9727 22.292 26.5769 22.6559 26.2131C22.9853 25.8861 23.386 25.36 23.7523 24.9323C24.1235 24.5095 24.244 24.2046 24.4898 23.7154C24.7332 23.2287 24.6127 22.8009 24.4283 22.4346C24.244 22.0708 22.7837 18.4743 22.1765 17.0116C21.5816 15.5882 20.9793 15.78 20.5319 15.7578L19.1306 15.7332C18.6439 15.7332 17.8523 15.9152 17.1837 16.6477C16.515 17.3803 14.627 19.1454 14.627 22.7419C14.627 26.3384 17.2451 29.812 17.6089 30.2988C17.9752 30.7855 22.7591 38.1654 30.0874 41.3293C31.8303 42.0815 33.1922 42.5314 34.2518 42.8682C36.0021 43.4238 37.5951 43.3451 38.8537 43.1583C40.2574 42.9493 43.1755 41.3907 43.7851 39.6847C44.3948 37.9761 44.3948 36.5134 44.2104 36.2086Z" fill="white"/>
</svg>
