<svg width="17" height="16" viewBox="0 0 17 16" fill="none" xmlns="http://www.w3.org/2000/svg">
<path d="M16.6364 1.45825C16.5233 1.37003 16.3916 1.30873 16.2513 1.279C16.1109 1.24927 15.9657 1.2519 15.8265 1.28667L11.1287 2.46093L6.40648 0.0998226C6.20478 -0.00109645 5.97362 -0.0265016 5.75481 0.0282022L0.717778 1.28746C0.51315 1.33805 0.331327 1.45564 0.201255 1.62151C0.0711831 1.78738 0.00033864 1.992 0 2.20279V13.5361C2.17278e-05 13.6796 0.0327477 13.8212 0.0956921 13.9502C0.158637 14.0792 0.250144 14.1921 0.363264 14.2804C0.476385 14.3687 0.608143 14.4301 0.748531 14.4599C0.88892 14.4896 1.03425 14.487 1.17347 14.4522L5.8713 13.278L10.5935 15.6391C10.7952 15.74 11.0264 15.7654 11.2452 15.7107L16.2822 14.4514C16.4869 14.4009 16.6687 14.2833 16.7987 14.1174C16.9288 13.9515 16.9997 13.7469 17 13.5361V2.20279C17 2.05921 16.9672 1.91753 16.9042 1.78851C16.8412 1.6595 16.7496 1.54655 16.6364 1.45825ZM6.92593 2.47195L10.0741 4.04603V13.267L6.92593 11.6929V2.47195ZM1.88889 2.94417L5.03704 2.15714V11.5394L1.88889 12.3264V2.94417ZM15.1111 12.7987L11.963 13.5857V4.1995L15.1111 3.41246V12.7987Z" fill="#0D0E0F"/>
</svg>
