<svg width="59" height="59" viewBox="0 0 59 59" fill="none" xmlns="http://www.w3.org/2000/svg">
<g clip-path="url(#clip0_810_6939)">
<path fill-rule="evenodd" clip-rule="evenodd" d="M58.9997 29.4998C58.9997 45.7921 45.7921 58.9997 29.4998 58.9997C13.2075 58.9997 0 45.7921 0 29.4998C0 13.2075 13.2075 0 29.4998 0C45.7921 0 58.9997 13.2075 58.9997 29.4998ZM30.557 21.7781C27.6877 22.9715 21.9531 25.4416 13.3533 29.1884C11.9569 29.7438 11.2253 30.287 11.1587 30.8182C11.0462 31.716 12.1704 32.0695 13.7014 32.5509C13.9096 32.6164 14.1254 32.6842 14.3466 32.7561C15.8528 33.2458 17.8789 33.8186 18.9322 33.8413C19.8877 33.862 20.9541 33.4681 22.1314 32.6596C30.1664 27.2357 34.3142 24.4942 34.5746 24.4351C34.7583 24.3934 35.0129 24.341 35.1854 24.4943C35.3578 24.6476 35.3409 24.938 35.3226 25.0159C35.2112 25.4907 30.7981 29.5935 28.5144 31.7167C27.8024 32.3786 27.2974 32.8481 27.1941 32.9553C26.9629 33.1955 26.7272 33.4228 26.5006 33.6411C25.1013 34.9901 24.052 36.0017 26.5587 37.6536C27.7634 38.4474 28.7273 39.1039 29.689 39.7588C30.7393 40.474 31.7868 41.1873 33.1421 42.0758C33.4874 42.3021 33.8172 42.5372 34.1384 42.7662C35.3607 43.6376 36.4587 44.4204 37.8153 44.2956C38.6036 44.223 39.4178 43.4818 39.8314 41.2711C40.8086 36.0467 42.7296 24.7269 43.1736 20.0623C43.2125 19.6536 43.1635 19.1306 43.1242 18.901C43.0849 18.6714 43.0028 18.3442 42.7044 18.1021C42.3509 17.8153 41.8053 17.7548 41.5613 17.7591C40.4517 17.7787 38.7494 18.3706 30.557 21.7781Z" fill="white"/>
</g>
<defs>
<clipPath id="clip0_810_6939">
<rect width="58.4372" height="58.4372" fill="white" transform="scale(1.00963)"/>
</clipPath>
</defs>
</svg>
