<svg width="20" height="20" viewBox="0 0 20 20" fill="none" xmlns="http://www.w3.org/2000/svg">
<path d="M16.9132 9.96159C17.0006 10.0487 17.07 10.1522 17.1173 10.2661C17.1646 10.3801 17.189 10.5023 17.189 10.6256C17.189 10.749 17.1646 10.8712 17.1173 10.9852C17.07 11.0991 17.0006 11.2026 16.9132 11.2897L10.6632 17.5397C10.5762 17.6271 10.4727 17.6965 10.3587 17.7438C10.2447 17.7911 10.1226 17.8154 9.99918 17.8154C9.8758 17.8154 9.75362 17.7911 9.63967 17.7438C9.52571 17.6965 9.42222 17.6271 9.33512 17.5397L3.08512 11.2897C2.99792 11.2025 2.92874 11.099 2.88155 10.985C2.83435 10.8711 2.81006 10.749 2.81006 10.6256C2.81006 10.5023 2.83435 10.3802 2.88155 10.2663C2.92874 10.1523 2.99792 10.0488 3.08512 9.96159C3.17233 9.87438 3.27586 9.8052 3.3898 9.75801C3.50374 9.71081 3.62586 9.68652 3.74918 9.68652C3.87251 9.68652 3.99463 9.71081 4.10857 9.75801C4.22251 9.8052 4.32604 9.87438 4.41325 9.96159L9.99997 15.5467L15.5867 9.95924C15.6739 9.87223 15.7774 9.80326 15.8913 9.75629C16.0052 9.70931 16.1273 9.68524 16.2505 9.68546C16.3737 9.68568 16.4956 9.71017 16.6093 9.75756C16.7231 9.80493 16.8263 9.87427 16.9132 9.96159ZM9.33512 11.2897C9.42222 11.3771 9.52571 11.4465 9.63967 11.4938C9.75362 11.5411 9.8758 11.5655 9.99918 11.5655C10.1226 11.5655 10.2447 11.5411 10.3587 11.4938C10.4727 11.4465 10.5762 11.3771 10.6632 11.2897L16.9132 5.03971C17.0005 4.95251 17.0696 4.84898 17.1168 4.73504C17.164 4.6211 17.1883 4.49898 17.1883 4.37565C17.1883 4.25232 17.164 4.1302 17.1168 4.01626C17.0696 3.90232 17.0005 3.79879 16.9132 3.71159C16.826 3.62438 16.7225 3.55521 16.6086 3.50801C16.4946 3.46081 16.3725 3.43652 16.2492 3.43652C16.1259 3.43652 16.0037 3.46081 15.8898 3.50801C15.7759 3.55521 15.6723 3.62438 15.5851 3.71159L9.99997 9.29674L4.41325 3.71159C4.23713 3.53547 3.99826 3.43652 3.74918 3.43652C3.50011 3.43652 3.26124 3.53547 3.08512 3.71159C2.909 3.88771 2.81006 4.12658 2.81006 4.37565C2.81006 4.62472 2.909 4.86359 3.08512 5.03971L9.33512 11.2897Z" fill="#0D0E0F"/>
</svg>
