<svg width="18" height="26" viewBox="0 0 18 26" fill="none" xmlns="http://www.w3.org/2000/svg">
<path d="M18 6.455V2C18 1.46957 17.7893 0.960859 17.4142 0.585786C17.0391 0.210714 16.5304 0 16 0H2C1.46957 0 0.960859 0.210714 0.585786 0.585786C0.210714 0.960859 0 1.46957 0 2V6.5C0.000675612 6.81037 0.0732624 7.11636 0.212065 7.39397C0.350867 7.67157 0.552109 7.91324 0.8 8.1L7.33375 13L0.8 17.9C0.552109 18.0868 0.350867 18.3284 0.212065 18.606C0.0732624 18.8836 0.000675612 19.1896 0 19.5V24C0 24.5304 0.210714 25.0391 0.585786 25.4142C0.960859 25.7893 1.46957 26 2 26H16C16.5304 26 17.0391 25.7893 17.4142 25.4142C17.7893 25.0391 18 24.5304 18 24V19.545C17.9993 19.2358 17.9273 18.931 17.7896 18.6541C17.652 18.3773 17.4523 18.1359 17.2062 17.9487L10.6588 13L17.2062 8.05C17.4525 7.86323 17.6522 7.62211 17.7899 7.34544C17.9276 7.06877 17.9995 6.76403 18 6.455ZM16 24H2V19.5L9 14.25L16 19.5438V24ZM16 6.455L9 11.75L2 6.5V2H16V6.455Z" fill="#0E0F10"/>
</svg>
