<svg width="14" height="14" viewBox="0 0 14 14" fill="none" xmlns="http://www.w3.org/2000/svg">
<path d="M13.0801 5.31883C13.0254 5.15068 12.9222 5.00248 12.7834 4.8929C12.6446 4.78332 12.4765 4.71726 12.3003 4.70305L9.07373 4.44274L7.82794 1.43C7.76057 1.26584 7.64591 1.12542 7.49852 1.02659C7.35114 0.927767 7.1777 0.875 7.00025 0.875C6.8228 0.875 6.64936 0.927767 6.50198 1.02659C6.35459 1.12542 6.23993 1.26584 6.17255 1.43L4.92787 4.44219L1.69966 4.70305C1.52312 4.71798 1.35491 4.78468 1.2161 4.89479C1.0773 5.0049 0.974072 5.15352 0.91936 5.32203C0.864648 5.49055 0.860883 5.67146 0.908535 5.84211C0.956187 6.01275 1.05314 6.16554 1.18724 6.28133L3.64818 8.40485L2.89841 11.58C2.85648 11.7525 2.86675 11.9336 2.92791 12.1002C2.98907 12.2669 3.09837 12.4116 3.24194 12.516C3.3855 12.6204 3.55685 12.6798 3.73424 12.6867C3.91163 12.6936 4.08706 12.6476 4.23826 12.5545L6.99998 10.8548L9.76334 12.5545C9.91459 12.6465 10.0897 12.6916 10.2665 12.6842C10.4433 12.6768 10.614 12.6173 10.7571 12.5131C10.9002 12.4089 11.0092 12.2647 11.0705 12.0987C11.1318 11.9326 11.1426 11.7522 11.1015 11.58L10.349 8.4043L12.81 6.28078C12.9452 6.16519 13.043 6.01207 13.0911 5.84082C13.1392 5.66957 13.1354 5.48791 13.0801 5.31883ZM12.2412 5.61797L9.57794 7.91485C9.51721 7.9672 9.47203 8.03523 9.44734 8.11152C9.42265 8.18781 9.4194 8.26941 9.43794 8.34742L10.2517 11.7818C10.2538 11.7865 10.254 11.7919 10.2523 11.7968C10.2506 11.8017 10.247 11.8057 10.2424 11.808C10.2326 11.8157 10.2298 11.8141 10.2216 11.808L7.22912 9.96782C7.1602 9.92544 7.08088 9.90301 6.99998 9.90301C6.91907 9.90301 6.83975 9.92544 6.77083 9.96782L3.77834 11.8091C3.77013 11.8141 3.76794 11.8157 3.75755 11.8091C3.75294 11.8068 3.7494 11.8028 3.74767 11.7979C3.74594 11.793 3.74615 11.7876 3.74826 11.7829L4.56201 8.34852C4.58055 8.27051 4.5773 8.1889 4.55261 8.11261C4.52792 8.03633 4.48274 7.96829 4.42201 7.91594L1.75873 5.61906C1.75216 5.6136 1.74615 5.60867 1.75162 5.59172C1.75709 5.57477 1.76146 5.57696 1.76966 5.57586L5.26529 5.29367C5.34547 5.2868 5.42219 5.25794 5.48703 5.21028C5.55187 5.16261 5.6023 5.09799 5.63279 5.02352L6.97919 1.7636C6.98357 1.7543 6.98521 1.74992 6.99833 1.74992C7.01146 1.74992 7.0131 1.7543 7.01748 1.7636L8.36716 5.02352C8.39793 5.09802 8.44869 5.16257 8.51383 5.21005C8.57897 5.25753 8.65596 5.28609 8.7363 5.29258L12.2319 5.57477C12.2401 5.57477 12.2451 5.57477 12.25 5.59063C12.2549 5.60649 12.25 5.6125 12.2412 5.61797Z" fill="white"/>
</svg>
