<svg width="59" height="59" viewBox="0 0 59 59" fill="none" xmlns="http://www.w3.org/2000/svg">
<g clip-path="url(#clip0_810_6975)">
<path d="M29.4998 5.31228C37.3818 5.31228 38.3152 5.34685 41.415 5.48513C44.2959 5.61188 45.8515 6.09587 46.8886 6.49918C48.2599 7.02926 49.2509 7.67457 50.2765 8.70015C51.3136 9.73725 51.9474 10.7167 52.4775 12.088C52.8808 13.1251 53.3648 14.6923 53.4915 17.5616C53.6298 20.6729 53.6644 21.6063 53.6644 29.4768C53.6644 37.3588 53.6298 38.2922 53.4915 41.392C53.3648 44.2728 52.8808 45.8285 52.4775 46.8656C51.9474 48.2369 51.3021 49.2279 50.2765 50.2534C49.2394 51.2905 48.2599 51.9243 46.8886 52.4544C45.8515 52.8577 44.2843 53.3417 41.415 53.4685C38.3037 53.6067 37.3703 53.6413 29.4998 53.6413C21.6179 53.6413 20.6845 53.6067 17.5847 53.4685C14.7038 53.3417 13.1482 52.8577 12.1111 52.4544C10.7398 51.9243 9.74878 51.279 8.7232 50.2534C7.68609 49.2163 7.05231 48.2369 6.52223 46.8656C6.11891 45.8285 5.63493 44.2613 5.50817 41.392C5.36989 38.2807 5.33532 37.3473 5.33532 29.4768C5.33532 21.5948 5.36989 20.6614 5.50817 17.5616C5.63493 14.6808 6.11891 13.1251 6.52223 12.088C7.05231 10.7167 7.69761 9.72573 8.7232 8.70015C9.7603 7.66304 10.7398 7.02926 12.1111 6.49918C13.1482 6.09587 14.7154 5.61188 17.5847 5.48513C20.6845 5.34685 21.6179 5.31228 29.4998 5.31228ZM29.4998 0C21.4911 0 20.4886 0.0345701 17.3427 0.172851C14.2083 0.311131 12.0535 0.818159 10.1867 1.54413C8.23921 2.30467 6.59137 3.30721 4.95505 4.95505C3.30721 6.59137 2.30467 8.23921 1.54413 10.1751C0.81816 12.0535 0.311131 14.1968 0.172851 17.3312C0.0345701 20.4886 0 21.4911 0 29.4998C0 37.5086 0.0345701 38.5111 0.172851 41.657C0.311131 44.7914 0.81816 46.9462 1.54413 48.813C2.30467 50.7605 3.30721 52.4083 4.95505 54.0446C6.59137 55.6809 8.23921 56.695 10.1751 57.444C12.0535 58.17 14.1968 58.677 17.3312 58.8153C20.477 58.9536 21.4796 58.9882 29.4883 58.9882C37.4971 58.9882 38.4996 58.9536 41.6455 58.8153C44.7798 58.677 46.9347 58.17 48.8015 57.444C50.7374 56.695 52.3853 55.6809 54.0216 54.0446C55.6579 52.4083 56.672 50.7605 57.421 48.8245C58.1469 46.9462 58.654 44.8029 58.7923 41.6685C58.9305 38.5226 58.9651 37.5201 58.9651 29.5114C58.9651 21.5026 58.9305 20.5001 58.7923 17.3542C58.654 14.2198 58.1469 12.065 57.421 10.1982C56.695 8.23921 55.6925 6.59137 54.0446 4.95505C52.4083 3.31873 50.7605 2.30467 48.8245 1.55566C46.9462 0.829683 44.8029 0.322655 41.6685 0.184374C38.5111 0.0345701 37.5086 0 29.4998 0Z" fill="white"/>
<path d="M29.499 14.3462C21.133 14.3462 14.3458 21.1335 14.3458 29.4995C14.3458 37.8655 21.133 44.6527 29.499 44.6527C37.865 44.6527 44.6522 37.8655 44.6522 29.4995C44.6522 21.1335 37.865 14.3462 29.499 14.3462ZM29.499 39.3289C24.0715 39.3289 19.6696 34.927 19.6696 29.4995C19.6696 24.072 24.0715 19.67 29.499 19.67C34.9265 19.67 39.3284 24.072 39.3284 29.4995C39.3284 34.927 34.9265 39.3289 29.499 39.3289Z" fill="white"/>
<path d="M48.7895 13.7473C48.7895 15.7063 47.1992 17.285 45.2518 17.285C43.2928 17.285 41.7141 15.6948 41.7141 13.7473C41.7141 11.7883 43.3043 10.2096 45.2518 10.2096C47.1992 10.2096 48.7895 11.7999 48.7895 13.7473Z" fill="white"/>
</g>
<defs>
<clipPath id="clip0_810_6975">
<rect width="58.4372" height="58.4372" fill="white" transform="scale(1.00963)"/>
</clipPath>
</defs>
</svg>
