<svg width="17" height="17" viewBox="0 0 17 17" fill="none" xmlns="http://www.w3.org/2000/svg">
<path d="M16.281 7.71979C16.3508 7.78945 16.4061 7.87216 16.4438 7.96321C16.4816 8.05426 16.501 8.15186 16.501 8.25042C16.501 8.34898 16.4816 8.44657 16.4438 8.53762C16.4061 8.62867 16.3508 8.71139 16.281 8.78104L8.78104 16.281C8.71139 16.3508 8.62867 16.4061 8.53762 16.4438C8.44657 16.4816 8.34898 16.501 8.25042 16.501C8.15186 16.501 8.05426 16.4816 7.96321 16.4438C7.87216 16.4061 7.78945 16.3508 7.71979 16.281L0.219792 8.78104C0.0790615 8.64031 0 8.44944 0 8.25042C0 8.05139 0.0790615 7.86052 0.219792 7.71979C0.360523 7.57906 0.551394 7.5 0.750417 7.5C0.94944 7.5 1.14031 7.57906 1.28104 7.71979L8.25042 14.6901L15.2198 7.71979C15.2894 7.65006 15.3722 7.59474 15.4632 7.557C15.5543 7.51925 15.6519 7.49983 15.7504 7.49983C15.849 7.49983 15.9466 7.51925 16.0376 7.557C16.1287 7.59474 16.2114 7.65006 16.281 7.71979ZM7.71979 8.78104C7.78945 8.85077 7.87216 8.90609 7.96321 8.94384C8.05426 8.98158 8.15186 9.00101 8.25042 9.00101C8.34898 9.00101 8.44657 8.98158 8.53762 8.94384C8.62867 8.90609 8.71139 8.85077 8.78104 8.78104L16.281 1.28104C16.4218 1.14031 16.5008 0.94944 16.5008 0.750417C16.5008 0.551394 16.4218 0.360523 16.281 0.219792C16.1403 0.0790615 15.9494 3.92322e-09 15.7504 0C15.5514 -3.92322e-09 15.3605 0.0790615 15.2198 0.219792L8.25042 7.1901L1.28104 0.219792C1.14031 0.0790615 0.94944 0 0.750417 0C0.551394 0 0.360523 0.0790615 0.219792 0.219792C0.0790615 0.360523 0 0.551394 0 0.750417C0 0.94944 0.0790615 1.14031 0.219792 1.28104L7.71979 8.78104Z" fill="#0E0F10"/>
</svg>
