<svg width="14" height="14" viewBox="0 0 14 14" fill="none" xmlns="http://www.w3.org/2000/svg">
<path d="M6.105 3.011C6.16923 3.02477 6.23011 3.05106 6.28417 3.08837C6.33823 3.12568 6.38441 3.17328 6.42007 3.22844C6.45573 3.2836 6.48017 3.34525 6.492 3.40986C6.50383 3.47447 6.50281 3.54078 6.489 3.605L6.19 5H8.667L9.01 3.395C9.03785 3.26531 9.11607 3.15199 9.22747 3.07998C9.33887 3.00796 9.47431 2.98315 9.604 3.011C9.73369 3.03885 9.84701 3.11707 9.91902 3.22847C9.99104 3.33987 10.0158 3.47531 9.988 3.605L9.69 5H10.501C10.6336 5 10.7608 5.05268 10.8546 5.14645C10.9483 5.24021 11.001 5.36739 11.001 5.5C11.001 5.63261 10.9483 5.75979 10.8546 5.85355C10.7608 5.94732 10.6336 6 10.501 6H9.476L9.048 8H10C10.1326 8 10.2598 8.05268 10.3536 8.14645C10.4473 8.24021 10.5 8.36739 10.5 8.5C10.5 8.63261 10.4473 8.75979 10.3536 8.85355C10.2598 8.94732 10.1326 9 10 9H8.833L8.489 10.604C8.46115 10.7337 8.38293 10.847 8.27153 10.919C8.16013 10.991 8.02469 11.0158 7.895 10.988C7.76531 10.9602 7.65199 10.8819 7.57998 10.7705C7.50797 10.6591 7.48315 10.5237 7.511 10.394L7.81 9H5.333L4.989 10.605C4.97521 10.6692 4.94891 10.7301 4.9116 10.7841C4.87428 10.8382 4.82669 10.8844 4.77153 10.92C4.66013 10.992 4.52469 11.0168 4.395 10.989C4.26531 10.9612 4.15199 10.8829 4.07998 10.7715C4.00796 10.6601 3.98315 10.5247 4.011 10.395L4.311 9H3.5C3.36739 9 3.24021 8.94732 3.14645 8.85355C3.05268 8.75979 3 8.63261 3 8.5C3 8.36739 3.05268 8.24021 3.14645 8.14645C3.24021 8.05268 3.36739 8 3.5 8H4.524L4.954 6H4C3.86739 6 3.74021 5.94732 3.64645 5.85355C3.55268 5.75979 3.5 5.63261 3.5 5.5C3.5 5.36739 3.55268 5.24021 3.64645 5.14645C3.74021 5.05268 3.86739 5 4 5H5.167L5.511 3.395C5.52477 3.33077 5.55106 3.26989 5.58837 3.21583C5.62568 3.16177 5.67328 3.11559 5.72844 3.07993C5.7836 3.04427 5.84525 3.01982 5.90986 3.008C5.97447 2.99617 6.04078 2.99719 6.105 3.011ZM5.547 8H8.024L8.453 6H5.976L5.547 8ZM0 2.5C0 1.83696 0.263392 1.20107 0.732233 0.732233C1.20107 0.263392 1.83696 0 2.5 0H11.5C12.163 0 12.7989 0.263392 13.2678 0.732233C13.7366 1.20107 14 1.83696 14 2.5V11.5C14 12.163 13.7366 12.7989 13.2678 13.2678C12.7989 13.7366 12.163 14 11.5 14H2.5C1.83696 14 1.20107 13.7366 0.732233 13.2678C0.263392 12.7989 0 12.163 0 11.5V2.5ZM2.5 1C2.10218 1 1.72064 1.15804 1.43934 1.43934C1.15804 1.72064 1 2.10218 1 2.5V11.5C1 11.8978 1.15804 12.2794 1.43934 12.5607C1.72064 12.842 2.10218 13 2.5 13H11.5C11.8978 13 12.2794 12.842 12.5607 12.5607C12.842 12.2794 13 11.8978 13 11.5V2.5C13 2.10218 12.842 1.72064 12.5607 1.43934C12.2794 1.15804 11.8978 1 11.5 1H2.5Z" fill="#8A38F5"/>
</svg>
