<svg width="52" height="48" viewBox="0 0 52 48" fill="none" xmlns="http://www.w3.org/2000/svg">
<g clip-path="url(#clip0_1261_4766)">
<path d="M34.0766 17.636C33.9643 17.5484 33.8336 17.4876 33.6943 17.4581C33.555 17.4286 33.4108 17.4312 33.2727 17.4657L28.6094 18.6313L23.9219 16.2876C23.7217 16.1874 23.4922 16.1622 23.275 16.2165L18.275 17.4665C18.0719 17.5167 17.8914 17.6334 17.7623 17.7981C17.6332 17.9627 17.5628 18.1658 17.5625 18.3751V29.6251C17.5625 29.7675 17.595 29.9081 17.6575 30.0361C17.72 30.1641 17.8108 30.2762 17.9231 30.3639C18.0354 30.4516 18.1662 30.5125 18.3055 30.542C18.4449 30.5716 18.5891 30.569 18.7273 30.5344L23.3906 29.3688L28.0781 31.7126C28.2783 31.8127 28.5078 31.838 28.725 31.7837L33.725 30.5337C33.9281 30.4834 34.1086 30.3667 34.2377 30.2021C34.3668 30.0374 34.4372 29.8343 34.4375 29.6251V18.3751C34.4375 18.2325 34.405 18.0919 34.3424 17.9638C34.2799 17.8358 34.1889 17.7237 34.0766 17.636ZM24.4375 18.6423L27.5625 20.2048V29.3579L24.4375 27.7954V18.6423ZM19.4375 19.111L22.5625 18.3298V27.643L19.4375 28.4243V19.111ZM32.5625 28.893L29.4375 29.6743V20.3571L32.5625 19.5758V28.893Z" fill="#0D0E0F"/>
</g>
<rect x="0.75" y="6.75" width="50.5" height="34.5" rx="17.25" stroke="#0D0E0F" stroke-width="1.5"/>
<defs>
<clipPath id="clip0_1261_4766">
<rect y="6" width="52" height="36" rx="18" fill="white"/>
</clipPath>
</defs>
</svg>
