<svg width="24" height="24" viewBox="0 0 24 24" fill="none" xmlns="http://www.w3.org/2000/svg">
<path d="M23.25 11.2498C23.2488 10.0567 22.7743 8.91287 21.9306 8.06923C21.087 7.22558 19.9431 6.75108 18.75 6.74984H15.0187C14.7459 6.7339 9.99188 6.39921 5.46469 2.60234C5.24607 2.41873 4.97959 2.30132 4.69656 2.26391C4.41353 2.2265 4.12571 2.27064 3.86689 2.39114C3.60807 2.51163 3.38902 2.70349 3.23546 2.94417C3.0819 3.18484 3.00022 3.46434 3 3.74984V18.7498C3.00004 19.0354 3.0816 19.315 3.23508 19.5558C3.38857 19.7967 3.60761 19.9887 3.86646 20.1093C4.12532 20.2299 4.41322 20.2741 4.69633 20.2367C4.97945 20.1994 5.24601 20.0819 5.46469 19.8983C9.00563 16.9283 12.6834 16.077 14.25 15.8389V18.8126C14.2497 19.0598 14.3105 19.3032 14.4269 19.5213C14.5434 19.7393 14.7119 19.9252 14.9175 20.0623L15.9487 20.7495C16.1481 20.8826 16.3764 20.9659 16.6145 20.9926C16.8527 21.0193 17.0938 20.9885 17.3176 20.9028C17.5414 20.8172 17.7414 20.6791 17.901 20.5003C18.0605 20.3214 18.1748 20.107 18.2344 19.8748L19.3378 15.7161C20.4204 15.572 21.4138 15.0398 22.1334 14.2183C22.853 13.3968 23.2498 12.3419 23.25 11.2498ZM4.5 18.7433V3.74984C8.51344 7.1164 12.6216 7.96859 14.25 8.17859V14.3173C12.6234 14.5311 8.51625 15.3814 4.5 18.7433ZM16.7812 19.4933V19.5036L15.75 18.8164V15.7498H17.775L16.7812 19.4933ZM18.75 14.2498H15.75V8.24984H18.75C19.5456 8.24984 20.3087 8.56591 20.8713 9.12852C21.4339 9.69112 21.75 10.4542 21.75 11.2498C21.75 12.0455 21.4339 12.8085 20.8713 13.3712C20.3087 13.9338 19.5456 14.2498 18.75 14.2498Z" fill="#0E0F10"/>
</svg>
