<svg width="20" height="20" viewBox="0 0 20 20" fill="none" xmlns="http://www.w3.org/2000/svg">
<path d="M18.3038 3.74297C18.1813 3.46613 17.9811 3.23082 17.7274 3.06564C17.4737 2.90045 17.1776 2.81251 16.8748 2.8125H3.12485C2.82219 2.81253 2.52605 2.90046 2.27242 3.06561C2.01879 3.23075 1.81858 3.46601 1.69612 3.74279C1.57365 4.01957 1.53421 4.32595 1.58259 4.62472C1.63096 4.92349 1.76506 5.20178 1.9686 5.42578L1.97797 5.43672L7.18735 10.9961V16.875C7.18731 17.1579 7.26406 17.4355 7.40942 17.6781C7.55478 17.9208 7.76329 18.1195 8.01272 18.2529C8.26214 18.3864 8.54311 18.4496 8.82566 18.4359C9.1082 18.4222 9.38172 18.332 9.61704 18.175L12.117 16.5086C12.3311 16.3658 12.5065 16.1723 12.6278 15.9454C12.7491 15.7185 12.8125 15.4651 12.8123 15.2078V10.9961L18.0209 5.43672L18.0303 5.42578C18.234 5.2019 18.3682 4.92369 18.4168 4.62495C18.4653 4.32622 18.4261 4.01981 18.3038 3.74297ZM11.1944 9.98438C11.0303 10.1575 10.9384 10.3865 10.9373 10.625V15.0406L9.06235 16.2906V10.625C9.06211 10.387 8.97134 10.1579 8.80844 9.98438L3.84594 4.6875H16.1538L11.1944 9.98438Z" fill="#0D0E0F"/>
</svg>
