<svg width="84" height="12" viewBox="0 0 84 12" fill="none" xmlns="http://www.w3.org/2000/svg">
<path d="M4.29184 2.04481C5.05202 0.681604 5.43181 0 6 0C6.56819 0 6.94798 0.681604 7.70816 2.04481L7.90495 2.39762C8.12095 2.78522 8.22895 2.97902 8.39694 3.10682C8.56494 3.23462 8.77493 3.28202 9.19492 3.37682L9.57652 3.46322C11.0525 3.79742 11.7899 3.96423 11.9657 4.52883C12.1409 5.09283 11.6381 5.68144 10.6319 6.85804L10.3715 7.16225C10.0859 7.49645 9.94251 7.66385 9.87831 7.87025C9.81411 8.07725 9.83571 8.30045 9.87891 8.74626L9.91851 9.15246C10.0703 10.7227 10.1465 11.5075 9.68691 11.8561C9.22732 12.2047 8.53614 11.8867 7.15497 11.2507L6.79678 11.0863C6.40439 10.9051 6.20819 10.8151 6 10.8151C5.7918 10.8151 5.59561 10.9051 5.20322 11.0863L4.84563 11.2507C3.46386 11.8867 2.77268 12.2047 2.31369 11.8567C1.8535 11.5075 1.9297 10.7227 2.08149 9.15246L2.12109 8.74686C2.16429 8.30045 2.18589 8.07725 2.12109 7.87085C2.05749 7.66385 1.9141 7.49645 1.6285 7.16285L1.36811 6.85804C0.361933 5.68204 -0.140856 5.09343 0.0343402 4.52883C0.209536 3.96423 0.948119 3.79682 2.42408 3.46322L2.80567 3.37682C3.22506 3.28202 3.43446 3.23462 3.60306 3.10682C3.77165 2.97902 3.87905 2.78522 4.09504 2.39762L4.29184 2.04481Z" fill="#0D0E0F"/>
<path d="M22.2918 2.04481C23.052 0.681604 23.4318 0 24 0C24.5682 0 24.948 0.681604 25.7082 2.04481L25.905 2.39762C26.1209 2.78522 26.2289 2.97902 26.3969 3.10682C26.5649 3.23462 26.7749 3.28202 27.1949 3.37682L27.5765 3.46322C29.0525 3.79742 29.7899 3.96423 29.9657 4.52883C30.1409 5.09283 29.6381 5.68144 28.6319 6.85804L28.3715 7.16225C28.0859 7.49645 27.9425 7.66385 27.8783 7.87025C27.8141 8.07725 27.8357 8.30045 27.8789 8.74626L27.9185 9.15246C28.0703 10.7227 28.1465 11.5075 27.6869 11.8561C27.2273 12.2047 26.5361 11.8867 25.155 11.2507L24.7968 11.0863C24.4044 10.9051 24.2082 10.8151 24 10.8151C23.7918 10.8151 23.5956 10.9051 23.2032 11.0863L22.8456 11.2507C21.4639 11.8867 20.7727 12.2047 20.3137 11.8567C19.8535 11.5075 19.9297 10.7227 20.0815 9.15246L20.1211 8.74686C20.1643 8.30045 20.1859 8.07725 20.1211 7.87085C20.0575 7.66385 19.9141 7.49645 19.6285 7.16285L19.3681 6.85804C18.3619 5.68204 17.8591 5.09343 18.0343 4.52883C18.2095 3.96423 18.9481 3.79682 20.4241 3.46322L20.8057 3.37682C21.2251 3.28202 21.4345 3.23462 21.6031 3.10682C21.7717 2.97902 21.879 2.78522 22.095 2.39762L22.2918 2.04481Z" fill="#0D0E0F"/>
<path d="M40.2918 2.04481C41.052 0.681604 41.4318 0 42 0C42.5682 0 42.948 0.681604 43.7082 2.04481L43.905 2.39762C44.1209 2.78522 44.2289 2.97902 44.3969 3.10682C44.5649 3.23462 44.7749 3.28202 45.1949 3.37682L45.5765 3.46322C47.0525 3.79742 47.7899 3.96423 47.9657 4.52883C48.1409 5.09283 47.6381 5.68144 46.6319 6.85804L46.3715 7.16225C46.0859 7.49645 45.9425 7.66385 45.8783 7.87025C45.8141 8.07725 45.8357 8.30045 45.8789 8.74626L45.9185 9.15246C46.0703 10.7227 46.1465 11.5075 45.6869 11.8561C45.2273 12.2047 44.5361 11.8867 43.155 11.2507L42.7968 11.0863C42.4044 10.9051 42.2082 10.8151 42 10.8151C41.7918 10.8151 41.5956 10.9051 41.2032 11.0863L40.8456 11.2507C39.4639 11.8867 38.7727 12.2047 38.3137 11.8567C37.8535 11.5075 37.9297 10.7227 38.0815 9.15246L38.1211 8.74686C38.1643 8.30045 38.1859 8.07725 38.1211 7.87085C38.0575 7.66385 37.9141 7.49645 37.6285 7.16285L37.3681 6.85804C36.3619 5.68204 35.8591 5.09343 36.0343 4.52883C36.2095 3.96423 36.9481 3.79682 38.4241 3.46322L38.8057 3.37682C39.2251 3.28202 39.4345 3.23462 39.6031 3.10682C39.7717 2.97902 39.879 2.78522 40.095 2.39762L40.2918 2.04481Z" fill="#0D0E0F"/>
<path d="M58.2918 2.04481C59.052 0.681604 59.4318 0 60 0C60.5682 0 60.948 0.681604 61.7082 2.04481L61.905 2.39762C62.1209 2.78522 62.2289 2.97902 62.3969 3.10682C62.5649 3.23462 62.7749 3.28202 63.1949 3.37682L63.5765 3.46322C65.0525 3.79742 65.7899 3.96423 65.9657 4.52883C66.1409 5.09283 65.6381 5.68144 64.6319 6.85804L64.3715 7.16225C64.0859 7.49645 63.9425 7.66385 63.8783 7.87025C63.8141 8.07725 63.8357 8.30045 63.8789 8.74626L63.9185 9.15246C64.0703 10.7227 64.1465 11.5075 63.6869 11.8561C63.2273 12.2047 62.5361 11.8867 61.155 11.2507L60.7968 11.0863C60.4044 10.9051 60.2082 10.8151 60 10.8151C59.7918 10.8151 59.5956 10.9051 59.2032 11.0863L58.8456 11.2507C57.4639 11.8867 56.7727 12.2047 56.3137 11.8567C55.8535 11.5075 55.9297 10.7227 56.0815 9.15246L56.1211 8.74686C56.1643 8.30045 56.1859 8.07725 56.1211 7.87085C56.0575 7.66385 55.9141 7.49645 55.6285 7.16285L55.3681 6.85804C54.3619 5.68204 53.8591 5.09343 54.0343 4.52883C54.2095 3.96423 54.9481 3.79682 56.4241 3.46322L56.8057 3.37682C57.2251 3.28202 57.4345 3.23462 57.6031 3.10682C57.7717 2.97902 57.879 2.78522 58.095 2.39762L58.2918 2.04481Z" fill="#0D0E0F"/>
<path d="M76.2918 2.04481C77.052 0.681604 77.4318 0 78 0C78.5682 0 78.948 0.681604 79.7082 2.04481L79.905 2.39762C80.1209 2.78522 80.2289 2.97902 80.3969 3.10682C80.5649 3.23462 80.7749 3.28202 81.1949 3.37682L81.5765 3.46322C83.0525 3.79742 83.7899 3.96423 83.9657 4.52883C84.1409 5.09283 83.6381 5.68144 82.6319 6.85804L82.3715 7.16225C82.0859 7.49645 81.9425 7.66385 81.8783 7.87025C81.8141 8.07725 81.8357 8.30045 81.8789 8.74626L81.9185 9.15246C82.0703 10.7227 82.1465 11.5075 81.6869 11.8561C81.2273 12.2047 80.5361 11.8867 79.155 11.2507L78.7968 11.0863C78.4044 10.9051 78.2082 10.8151 78 10.8151C77.7918 10.8151 77.5956 10.9051 77.2032 11.0863L76.8456 11.2507C75.4639 11.8867 74.7727 12.2047 74.3137 11.8567C73.8535 11.5075 73.9297 10.7227 74.0815 9.15246L74.1211 8.74686C74.1643 8.30045 74.1859 8.07725 74.1211 7.87085C74.0575 7.66385 73.9141 7.49645 73.6285 7.16285L73.3681 6.85804C72.3619 5.68204 71.8591 5.09343 72.0343 4.52883C72.2095 3.96423 72.9481 3.79682 74.4241 3.46322L74.8057 3.37682C75.2251 3.28202 75.4345 3.23462 75.6031 3.10682C75.7717 2.97902 75.879 2.78522 76.095 2.39762L76.2918 2.04481Z" fill="#0D0E0F"/>
</svg>
