<svg width="21" height="21" viewBox="0 0 21 21" fill="none" xmlns="http://www.w3.org/2000/svg">
<path d="M9 6C9 5.70333 9.08797 5.41332 9.2528 5.16664C9.41762 4.91997 9.65189 4.72771 9.92598 4.61418C10.2001 4.50065 10.5017 4.47094 10.7926 4.52882C11.0836 4.5867 11.3509 4.72956 11.5607 4.93934C11.7704 5.14912 11.9133 5.41639 11.9712 5.70736C12.0291 5.99834 11.9994 6.29994 11.8858 6.57402C11.7723 6.84811 11.58 7.08238 11.3334 7.2472C11.0867 7.41203 10.7967 7.5 10.5 7.5C10.1022 7.5 9.72064 7.34196 9.43934 7.06066C9.15804 6.77936 9 6.39782 9 6ZM4.5 6C4.5 4.4087 5.13214 2.88258 6.25736 1.75736C7.38258 0.632141 8.9087 0 10.5 0C12.0913 0 13.6174 0.632141 14.7426 1.75736C15.8679 2.88258 16.5 4.4087 16.5 6C16.5 11.6203 11.1019 14.7694 10.875 14.9016C10.7617 14.9663 10.6334 15.0004 10.5028 15.0004C10.3723 15.0004 10.244 14.9663 10.1306 14.9016C9.89812 14.7694 4.5 11.625 4.5 6ZM6 6C6 9.95625 9.36 12.5822 10.5 13.3594C11.6391 12.5831 15 9.95625 15 6C15 4.80653 14.5259 3.66193 13.682 2.81802C12.8381 1.97411 11.6935 1.5 10.5 1.5C9.30653 1.5 8.16193 1.97411 7.31802 2.81802C6.47411 3.66193 6 4.80653 6 6ZM17.5097 12.3403C17.3251 12.2793 17.124 12.2924 16.9489 12.3768C16.7738 12.4612 16.6382 12.6102 16.5709 12.7926C16.5035 12.975 16.5096 13.1764 16.5879 13.3543C16.6661 13.5323 16.8104 13.6729 16.9903 13.7466C18.5381 14.3194 19.5 15.0863 19.5 15.75C19.5 17.0025 16.0762 18.75 10.5 18.75C4.92375 18.75 1.5 17.0025 1.5 15.75C1.5 15.0863 2.46188 14.3194 4.00969 13.7475C4.1896 13.6739 4.3339 13.5332 4.41215 13.3553C4.49039 13.1773 4.49648 12.9759 4.42913 12.7935C4.36178 12.6112 4.22624 12.4621 4.0511 12.3777C3.87596 12.2933 3.6749 12.2803 3.49031 12.3412C1.23937 13.1709 0 14.3822 0 15.75C0 18.6731 5.41031 20.25 10.5 20.25C15.5897 20.25 21 18.6731 21 15.75C21 14.3822 19.7606 13.1709 17.5097 12.3403Z" fill="#A978FF"/>
</svg>
