<svg width="24" height="24" viewBox="0 0 24 24" fill="none" xmlns="http://www.w3.org/2000/svg">
<path d="M23.8406 10.1168L21.4481 5.32995C21.3599 5.15376 21.238 4.99666 21.0891 4.86762C20.9403 4.73858 20.7674 4.64012 20.5805 4.57788C20.3936 4.51563 20.1963 4.49081 19.9998 4.50484C19.8033 4.51887 19.6114 4.57147 19.4353 4.65964L17.1037 5.82495L12.1921 4.52557C12.0661 4.49278 11.9338 4.49278 11.8078 4.52557L6.89621 5.82495L4.56465 4.65964C4.38847 4.57147 4.19666 4.51887 4.00015 4.50484C3.80365 4.49081 3.60631 4.51563 3.4194 4.57788C3.23249 4.64012 3.05967 4.73858 2.91081 4.86762C2.76195 4.99666 2.63997 5.15376 2.55183 5.32995L0.159334 10.1159C0.0711678 10.2921 0.0185686 10.4839 0.00454033 10.6804C-0.00948797 10.8769 0.0153294 11.0742 0.0775751 11.2611C0.139821 11.448 0.238276 11.6209 0.367317 11.7697C0.496358 11.9186 0.653459 12.0406 0.829647 12.1287L3.3609 13.3953L8.56308 17.1106C8.63974 17.1651 8.7259 17.2049 8.81715 17.2278L14.8171 18.7278C14.9428 18.7593 15.0745 18.7577 15.1993 18.7232C15.3242 18.6887 15.438 18.6224 15.5296 18.5309L20.6925 13.3671L23.1693 12.1287C23.5249 11.9507 23.7953 11.6388 23.921 11.2615C24.0467 10.8843 24.0174 10.4725 23.8396 10.1168H23.8406ZM18.6946 13.2453L15.4687 10.6615C15.3242 10.5458 15.142 10.4876 14.9571 10.4981C14.7723 10.5087 14.5979 10.5873 14.4675 10.7187C12.7978 12.4006 10.9368 12.1878 9.74996 11.4378L13.8037 7.50026H16.7859L19.3368 12.6012L18.6946 13.2453ZM3.8934 6.00026L5.81246 6.95839L3.41527 11.7443L1.49996 10.7871L3.8934 6.00026ZM14.7684 17.1687L9.32059 15.8074L4.70808 12.5131L7.33309 7.26307L12 6.02651L12.9187 6.26932L8.69996 10.3643L8.69246 10.3728C8.53365 10.5316 8.41253 10.724 8.33804 10.9359C8.26354 11.1478 8.23758 11.3736 8.26205 11.5969C8.28653 11.8201 8.36082 12.035 8.47945 12.2257C8.59808 12.4164 8.75802 12.5781 8.94746 12.6987C10.875 13.9296 13.2009 13.7299 15.0328 12.2299L17.625 14.3121L14.7684 17.1687ZM20.5809 11.7434L18.1884 6.96214L20.1065 6.00026L22.5 10.7871L20.5809 11.7434ZM12.3543 20.4312C12.3138 20.5933 12.2203 20.7372 12.0887 20.8401C11.9571 20.9431 11.7949 20.9991 11.6278 20.9993C11.5661 20.9992 11.5048 20.9917 11.445 20.9768L7.5384 19.9999C7.44703 19.9774 7.3608 19.9376 7.28433 19.8828L4.81402 18.1184C4.66213 17.9991 4.56209 17.8259 4.53474 17.6347C4.5074 17.4435 4.55484 17.2492 4.6672 17.0921C4.77956 16.9351 4.94818 16.8274 5.13794 16.7915C5.3277 16.7557 5.52397 16.7944 5.6859 16.8996L8.03996 18.5815L11.8125 19.5228C12.0054 19.571 12.1713 19.6939 12.2736 19.8645C12.3759 20.035 12.4063 20.2392 12.3581 20.4321L12.3543 20.4312Z" fill="#0E0F10"/>
</svg>
