<svg width="32" height="32" viewBox="0 0 32 32" fill="none" xmlns="http://www.w3.org/2000/svg">
<path d="M30.9536 5.98633C30.9393 5.74168 30.8357 5.5108 30.6624 5.33752C30.4891 5.16424 30.2583 5.06061 30.0136 5.04633C23.5436 4.67133 18.3486 6.63883 16.1161 10.3238C14.6411 12.7601 14.6436 15.7188 16.0961 18.5413C15.2694 19.5255 14.6652 20.6768 14.3249 21.9163L12.2911 19.8751C13.2686 17.8338 13.2311 15.7063 12.1661 13.9388C10.5161 11.2151 6.70737 9.75508 1.97862 10.0326C1.73398 10.0469 1.5031 10.1505 1.32982 10.3238C1.15653 10.4971 1.05291 10.7279 1.03862 10.9726C0.759874 15.7013 2.22112 19.5101 4.94487 21.1601C5.84371 21.7092 6.87656 21.9999 7.92987 22.0001C8.95225 21.9875 9.95872 21.7453 10.8749 21.2913L13.9999 24.4163V28.0001C13.9999 28.2653 14.1052 28.5196 14.2928 28.7072C14.4803 28.8947 14.7347 29.0001 14.9999 29.0001C15.2651 29.0001 15.5194 28.8947 15.707 28.7072C15.8945 28.5196 15.9999 28.2653 15.9999 28.0001V24.3138C15.9954 22.7229 16.5368 21.1787 17.5336 19.9388C18.8198 20.611 20.2463 20.9707 21.6974 20.9888C23.1003 20.9934 24.4773 20.6101 25.6761 19.8813C29.3611 17.6513 31.3336 12.4563 30.9536 5.98633ZM5.97612 19.4501C4.05862 18.2888 2.97362 15.5401 2.99987 12.0001C6.53987 11.9701 9.28862 13.0588 10.4499 14.9763C11.0561 15.9763 11.1549 17.1426 10.7574 18.3438L7.70612 15.2926C7.51706 15.113 7.26531 15.0143 7.00455 15.0176C6.74379 15.021 6.49465 15.126 6.31025 15.3104C6.12585 15.4948 6.02077 15.744 6.01744 16.0048C6.0141 16.2655 6.11275 16.5173 6.29237 16.7063L9.34362 19.7576C8.14237 20.1551 6.97737 20.0563 5.97612 19.4501ZM24.6399 18.1726C22.9649 19.1863 20.9961 19.2638 18.9961 18.4226L25.7074 11.7101C25.887 11.521 25.9857 11.2693 25.9823 11.0085C25.979 10.7477 25.8739 10.4986 25.6895 10.3142C25.5051 10.1298 25.256 10.0247 24.9952 10.0214C24.7344 10.018 24.4827 10.1167 24.2936 10.2963L17.5811 17.0001C16.7361 15.0001 16.8124 13.0301 17.8311 11.3563C19.5736 8.48133 23.7061 6.87883 28.9974 7.00258C29.1174 12.2926 27.5174 16.4301 24.6399 18.1726Z" fill="#0E0F10"/>
</svg>
